# xmcd
#
# Track frame offsets:
#	150
#	14325
#	28612
#	46462
#	65662
#	79387
#	90787
#	104250
#	120600
#	130875
#	144000
#	160650
#
# Disc length: 2313 seconds
#
# Revision: 1
# Processed by: cddbd v1.4b42PL1 Copyright (c) Steve Scherf et al.
# Submitted via: EasyCDDAExtractor 4.5.0.2
#
DISCID=9109070c
DTITLE=IIIrd Tyme Out - Letter to Home
DYEAR=1995
DGENRE=Bluegrass
TTITLE0=Can't Say Goodbye
TTITLE1=Letter to Home
TTITLE2=Broken Hearted Lover
TTITLE3=New Faces in the Field
TTITLE4=Raining in L.A.
TTITLE5=Only You (And You Alone)
TTITLE6=My Little Home In Tennessee
TTITLE7=Cabin Creek Stone Mill Dam]
TTITLE8=Tobacco Jack
TTITLE9=Troubled Mind
TTITLE10=Daydreams
TTITLE11=You're Gonna Be Sorry You Let Me Down
EXTD=
EXTT0=
EXTT1=
EXTT2=
EXTT3=
EXTT4=
EXTT5=
EXTT6=
EXTT7=
EXTT8=
EXTT9=
EXTT10=
EXTT11=
PLAYORDER=
